<mxfile host="app.diagrams.net" agent="Mozilla/5.0 (Windows NT 10.0; Win64; x64) AppleWebKit/537.36 (KHTML, like Gecko) Chrome/139.0.0.0 Safari/537.36 Edg/139.0.0.0" version="28.1.0">
  <diagram name="Page-1" id="MdlPKm2H2KRiLR6duQ7T">
    <mxGraphModel dx="2302" dy="1338" grid="1" gridSize="10" guides="1" tooltips="1" connect="1" arrows="1" fold="1" page="1" pageScale="1" pageWidth="850" pageHeight="1100" math="0" shadow="0">
      <root>
        <mxCell id="0" />
        <mxCell id="1" parent="0" />
        <mxCell id="1b8OOkyoyCvPbWK1I4tC-6" style="edgeStyle=orthogonalEdgeStyle;rounded=0;orthogonalLoop=1;jettySize=auto;html=1;exitX=0.5;exitY=1;exitDx=0;exitDy=0;entryX=0.5;entryY=0;entryDx=0;entryDy=0;" parent="1" source="1b8OOkyoyCvPbWK1I4tC-1" target="1b8OOkyoyCvPbWK1I4tC-2" edge="1">
          <mxGeometry relative="1" as="geometry" />
        </mxCell>
        <mxCell id="1b8OOkyoyCvPbWK1I4tC-1" value="&lt;h3&gt;&lt;font style=&quot;font-size: 14px;&quot;&gt;&lt;b&gt;Start&lt;/b&gt;&lt;/font&gt;&lt;/h3&gt;" style="rounded=1;whiteSpace=wrap;html=1;align=center;" parent="1" vertex="1">
          <mxGeometry x="300" y="60" width="120" height="40" as="geometry" />
        </mxCell>
        <mxCell id="1b8OOkyoyCvPbWK1I4tC-20" style="edgeStyle=orthogonalEdgeStyle;rounded=0;orthogonalLoop=1;jettySize=auto;html=1;entryX=0.5;entryY=0;entryDx=0;entryDy=0;" parent="1" source="1b8OOkyoyCvPbWK1I4tC-2" target="1b8OOkyoyCvPbWK1I4tC-18" edge="1">
          <mxGeometry relative="1" as="geometry" />
        </mxCell>
        <mxCell id="1b8OOkyoyCvPbWK1I4tC-2" value="&lt;h3&gt;Input n&lt;/h3&gt;" style="shape=parallelogram;perimeter=parallelogramPerimeter;whiteSpace=wrap;html=1;fixedSize=1;" parent="1" vertex="1">
          <mxGeometry x="275" y="140" width="170" height="40" as="geometry" />
        </mxCell>
        <mxCell id="1b8OOkyoyCvPbWK1I4tC-10" style="edgeStyle=orthogonalEdgeStyle;rounded=0;orthogonalLoop=1;jettySize=auto;html=1;exitX=1;exitY=0.5;exitDx=0;exitDy=0;entryX=0;entryY=0.5;entryDx=0;entryDy=0;" parent="1" source="1b8OOkyoyCvPbWK1I4tC-3" target="1b8OOkyoyCvPbWK1I4tC-9" edge="1">
          <mxGeometry relative="1" as="geometry" />
        </mxCell>
        <mxCell id="c2tBITpVY1rd2HRfeNSJ-5" value="Yes" style="edgeLabel;html=1;align=center;verticalAlign=middle;resizable=0;points=[];arcSize=14;fontStyle=1;fontSize=14;" parent="1b8OOkyoyCvPbWK1I4tC-10" vertex="1" connectable="0">
          <mxGeometry x="-0.1289" relative="1" as="geometry">
            <mxPoint x="-4" y="-12" as="offset" />
          </mxGeometry>
        </mxCell>
        <mxCell id="1b8OOkyoyCvPbWK1I4tC-3" value="&lt;h3&gt;&lt;font style=&quot;font-size: 14px;&quot;&gt;i &amp;lt; n&lt;/font&gt;&lt;/h3&gt;" style="rhombus;whiteSpace=wrap;html=1;align=center;fontStyle=1" parent="1" vertex="1">
          <mxGeometry x="290" y="427" width="140" height="70" as="geometry" />
        </mxCell>
        <mxCell id="1b8OOkyoyCvPbWK1I4tC-8" style="edgeStyle=orthogonalEdgeStyle;rounded=0;orthogonalLoop=1;jettySize=auto;html=1;entryX=0.5;entryY=0;entryDx=0;entryDy=0;" parent="1" source="1b8OOkyoyCvPbWK1I4tC-4" target="1b8OOkyoyCvPbWK1I4tC-3" edge="1">
          <mxGeometry relative="1" as="geometry" />
        </mxCell>
        <mxCell id="1b8OOkyoyCvPbWK1I4tC-4" value="&lt;h3&gt;&lt;font style=&quot;font-size: 14px;&quot;&gt;i = 0&lt;/font&gt;&lt;/h3&gt;" style="rounded=0;whiteSpace=wrap;html=1;" parent="1" vertex="1">
          <mxGeometry x="300" y="317" width="120" height="30" as="geometry" />
        </mxCell>
        <mxCell id="1b8OOkyoyCvPbWK1I4tC-14" style="edgeStyle=orthogonalEdgeStyle;rounded=0;orthogonalLoop=1;jettySize=auto;html=1;exitX=0.5;exitY=0;exitDx=0;exitDy=0;entryX=0.5;entryY=1;entryDx=0;entryDy=0;" parent="1" source="1b8OOkyoyCvPbWK1I4tC-9" target="1b8OOkyoyCvPbWK1I4tC-13" edge="1">
          <mxGeometry relative="1" as="geometry" />
        </mxCell>
        <mxCell id="1b8OOkyoyCvPbWK1I4tC-9" value="&lt;h3&gt;Input a[i]&lt;/h3&gt;" style="shape=parallelogram;perimeter=parallelogramPerimeter;whiteSpace=wrap;html=1;fixedSize=1;" parent="1" vertex="1">
          <mxGeometry x="510" y="442" width="170" height="40" as="geometry" />
        </mxCell>
        <mxCell id="1b8OOkyoyCvPbWK1I4tC-16" style="edgeStyle=orthogonalEdgeStyle;rounded=0;orthogonalLoop=1;jettySize=auto;html=1;" parent="1" source="1b8OOkyoyCvPbWK1I4tC-13" edge="1">
          <mxGeometry relative="1" as="geometry">
            <mxPoint x="360" y="382" as="targetPoint" />
          </mxGeometry>
        </mxCell>
        <mxCell id="1b8OOkyoyCvPbWK1I4tC-13" value="&lt;h3&gt;&lt;font style=&quot;font-size: 14px;&quot;&gt;i++&lt;/font&gt;&lt;/h3&gt;" style="rounded=0;whiteSpace=wrap;html=1;" parent="1" vertex="1">
          <mxGeometry x="535" y="367" width="120" height="30" as="geometry" />
        </mxCell>
        <mxCell id="1b8OOkyoyCvPbWK1I4tC-21" style="edgeStyle=orthogonalEdgeStyle;rounded=0;orthogonalLoop=1;jettySize=auto;html=1;entryX=0.5;entryY=0;entryDx=0;entryDy=0;" parent="1" source="1b8OOkyoyCvPbWK1I4tC-18" target="1b8OOkyoyCvPbWK1I4tC-4" edge="1">
          <mxGeometry relative="1" as="geometry" />
        </mxCell>
        <mxCell id="c2tBITpVY1rd2HRfeNSJ-2" value="No" style="edgeLabel;html=1;align=center;verticalAlign=middle;resizable=0;points=[];" parent="1b8OOkyoyCvPbWK1I4tC-21" vertex="1" connectable="0">
          <mxGeometry x="0.4491" y="-1" relative="1" as="geometry">
            <mxPoint x="-39" y="-2" as="offset" />
          </mxGeometry>
        </mxCell>
        <mxCell id="1b8OOkyoyCvPbWK1I4tC-23" style="edgeStyle=orthogonalEdgeStyle;rounded=0;orthogonalLoop=1;jettySize=auto;html=1;entryX=0;entryY=0.5;entryDx=0;entryDy=0;" parent="1" source="1b8OOkyoyCvPbWK1I4tC-18" target="1b8OOkyoyCvPbWK1I4tC-22" edge="1">
          <mxGeometry relative="1" as="geometry" />
        </mxCell>
        <mxCell id="c2tBITpVY1rd2HRfeNSJ-4" value="Yes" style="edgeLabel;html=1;align=center;verticalAlign=middle;resizable=0;points=[];arcSize=14;fontStyle=1;fontSize=14;" parent="1b8OOkyoyCvPbWK1I4tC-23" vertex="1" connectable="0">
          <mxGeometry x="-0.1289" y="1" relative="1" as="geometry">
            <mxPoint y="-19" as="offset" />
          </mxGeometry>
        </mxCell>
        <mxCell id="1b8OOkyoyCvPbWK1I4tC-18" value="&lt;h3&gt;&lt;span style=&quot;font-size: 14px;&quot;&gt;n &amp;lt; 1&lt;/span&gt;&lt;/h3&gt;" style="rhombus;whiteSpace=wrap;html=1;align=center;fontStyle=1" parent="1" vertex="1">
          <mxGeometry x="300" y="230" width="120" height="60" as="geometry" />
        </mxCell>
        <mxCell id="1b8OOkyoyCvPbWK1I4tC-27" style="edgeStyle=orthogonalEdgeStyle;rounded=0;orthogonalLoop=1;jettySize=auto;html=1;" parent="1" source="1b8OOkyoyCvPbWK1I4tC-22" edge="1">
          <mxGeometry relative="1" as="geometry">
            <mxPoint x="360" y="200" as="targetPoint" />
            <Array as="points">
              <mxPoint x="585" y="200" />
            </Array>
          </mxGeometry>
        </mxCell>
        <mxCell id="1b8OOkyoyCvPbWK1I4tC-22" value="&lt;h3&gt;&lt;font style=&quot;font-size: 12px;&quot;&gt;Display&lt;br&gt;&quot;n phai &amp;gt;= 1&quot;&lt;/font&gt;&lt;/h3&gt;" style="shape=parallelogram;perimeter=parallelogramPerimeter;whiteSpace=wrap;html=1;fixedSize=1;" parent="1" vertex="1">
          <mxGeometry x="500" y="240" width="170" height="40" as="geometry" />
        </mxCell>
        <mxCell id="1b8OOkyoyCvPbWK1I4tC-35" style="edgeStyle=orthogonalEdgeStyle;rounded=0;orthogonalLoop=1;jettySize=auto;html=1;entryX=0.5;entryY=0;entryDx=0;entryDy=0;" parent="1" edge="1">
          <mxGeometry relative="1" as="geometry">
            <mxPoint x="360" y="500" as="sourcePoint" />
            <mxPoint x="360" y="600" as="targetPoint" />
          </mxGeometry>
        </mxCell>
        <mxCell id="c2tBITpVY1rd2HRfeNSJ-6" value="No" style="edgeLabel;html=1;align=center;verticalAlign=middle;resizable=0;points=[];arcSize=14;fontStyle=1;fontSize=14;" parent="1b8OOkyoyCvPbWK1I4tC-35" vertex="1" connectable="0">
          <mxGeometry x="-0.2161" y="-1" relative="1" as="geometry">
            <mxPoint x="-29" as="offset" />
          </mxGeometry>
        </mxCell>
        <mxCell id="1b8OOkyoyCvPbWK1I4tC-28" value="&lt;div style=&quot;line-height: 100%;&quot;&gt;&lt;h3 style=&quot;line-height: 100%;&quot;&gt;&lt;font style=&quot;font-size: 11px; font-weight: normal; line-height: 100%;&quot;&gt;Display&lt;br&gt;&lt;/font&gt;&lt;span style=&quot;font-size: 11px; font-weight: normal; background-color: transparent; color: light-dark(rgb(0, 0, 0), rgb(255, 255, 255));&quot;&gt;&quot;Cac phan tu da nhap&quot;&lt;/span&gt;&lt;/h3&gt;&lt;/div&gt;" style="shape=parallelogram;perimeter=parallelogramPerimeter;whiteSpace=wrap;html=1;fixedSize=1;" parent="1" vertex="1">
          <mxGeometry x="510" y="530" width="170" height="40" as="geometry" />
        </mxCell>
        <mxCell id="1b8OOkyoyCvPbWK1I4tC-39" style="edgeStyle=orthogonalEdgeStyle;rounded=0;orthogonalLoop=1;jettySize=auto;html=1;entryX=0.5;entryY=0;entryDx=0;entryDy=0;" parent="1" target="1b8OOkyoyCvPbWK1I4tC-38" edge="1">
          <mxGeometry relative="1" as="geometry">
            <mxPoint x="360" y="630" as="sourcePoint" />
          </mxGeometry>
        </mxCell>
        <mxCell id="1b8OOkyoyCvPbWK1I4tC-36" value="&lt;h3&gt;&lt;font style=&quot;font-size: 14px;&quot;&gt;i = 0&lt;/font&gt;&lt;/h3&gt;" style="rounded=0;whiteSpace=wrap;html=1;" parent="1" vertex="1">
          <mxGeometry x="302" y="600" width="120" height="30" as="geometry" />
        </mxCell>
        <mxCell id="1b8OOkyoyCvPbWK1I4tC-41" style="edgeStyle=orthogonalEdgeStyle;rounded=0;orthogonalLoop=1;jettySize=auto;html=1;" parent="1" source="1b8OOkyoyCvPbWK1I4tC-38" edge="1">
          <mxGeometry relative="1" as="geometry">
            <mxPoint x="360" y="770" as="targetPoint" />
          </mxGeometry>
        </mxCell>
        <mxCell id="c2tBITpVY1rd2HRfeNSJ-20" value="&lt;b&gt;&lt;font style=&quot;font-size: 14px;&quot;&gt;Yes&lt;/font&gt;&lt;/b&gt;" style="edgeLabel;html=1;align=center;verticalAlign=middle;resizable=0;points=[];" parent="1b8OOkyoyCvPbWK1I4tC-41" vertex="1" connectable="0">
          <mxGeometry x="-0.1211" y="-1" relative="1" as="geometry">
            <mxPoint x="-29" as="offset" />
          </mxGeometry>
        </mxCell>
        <mxCell id="c2tBITpVY1rd2HRfeNSJ-50" style="edgeStyle=orthogonalEdgeStyle;rounded=0;orthogonalLoop=1;jettySize=auto;html=1;entryX=0;entryY=0.5;entryDx=0;entryDy=0;" parent="1" source="1b8OOkyoyCvPbWK1I4tC-38" target="c2tBITpVY1rd2HRfeNSJ-49" edge="1">
          <mxGeometry relative="1" as="geometry" />
        </mxCell>
        <mxCell id="c2tBITpVY1rd2HRfeNSJ-51" value="&lt;font style=&quot;font-size: 14px;&quot;&gt;&lt;b&gt;No&lt;/b&gt;&lt;/font&gt;" style="edgeLabel;html=1;align=center;verticalAlign=middle;resizable=0;points=[];" parent="c2tBITpVY1rd2HRfeNSJ-50" vertex="1" connectable="0">
          <mxGeometry x="-0.2176" relative="1" as="geometry">
            <mxPoint x="-4" y="-15" as="offset" />
          </mxGeometry>
        </mxCell>
        <mxCell id="1b8OOkyoyCvPbWK1I4tC-38" value="&lt;h3&gt;&lt;font style=&quot;font-size: 14px;&quot;&gt;i &amp;lt; n&lt;/font&gt;&lt;/h3&gt;" style="rhombus;whiteSpace=wrap;html=1;align=center;fontStyle=1" parent="1" vertex="1">
          <mxGeometry x="290" y="660" width="140" height="70" as="geometry" />
        </mxCell>
        <mxCell id="c2tBITpVY1rd2HRfeNSJ-14" style="edgeStyle=orthogonalEdgeStyle;rounded=0;orthogonalLoop=1;jettySize=auto;html=1;" parent="1" source="1b8OOkyoyCvPbWK1I4tC-45" edge="1">
          <mxGeometry relative="1" as="geometry">
            <mxPoint x="362" y="830" as="targetPoint" />
          </mxGeometry>
        </mxCell>
        <mxCell id="1b8OOkyoyCvPbWK1I4tC-45" value="&lt;h3&gt;&lt;font style=&quot;font-size: 14px;&quot;&gt;j = i + 1&lt;/font&gt;&lt;/h3&gt;" style="rounded=0;whiteSpace=wrap;html=1;" parent="1" vertex="1">
          <mxGeometry x="302" y="770" width="120" height="30" as="geometry" />
        </mxCell>
        <mxCell id="c2tBITpVY1rd2HRfeNSJ-24" style="edgeStyle=orthogonalEdgeStyle;rounded=0;orthogonalLoop=1;jettySize=auto;html=1;entryX=0.5;entryY=0;entryDx=0;entryDy=0;" parent="1" source="1b8OOkyoyCvPbWK1I4tC-46" target="c2tBITpVY1rd2HRfeNSJ-23" edge="1">
          <mxGeometry relative="1" as="geometry" />
        </mxCell>
        <mxCell id="1b8OOkyoyCvPbWK1I4tC-46" value="&lt;h3&gt;&lt;span style=&quot;font-size: 14px;&quot;&gt;k = j&lt;/span&gt;&lt;/h3&gt;" style="rounded=0;whiteSpace=wrap;html=1;" parent="1" vertex="1">
          <mxGeometry x="302" y="1050" width="120" height="30" as="geometry" />
        </mxCell>
        <mxCell id="c2tBITpVY1rd2HRfeNSJ-3" value="No" style="edgeLabel;html=1;align=center;verticalAlign=middle;resizable=0;points=[];arcSize=14;fontStyle=1;fontSize=14;" parent="1" vertex="1" connectable="0">
          <mxGeometry x="320" y="300" as="geometry" />
        </mxCell>
        <mxCell id="c2tBITpVY1rd2HRfeNSJ-8" style="edgeStyle=orthogonalEdgeStyle;rounded=0;orthogonalLoop=1;jettySize=auto;html=1;exitX=1;exitY=0.5;exitDx=0;exitDy=0;" parent="1" target="1b8OOkyoyCvPbWK1I4tC-28" edge="1">
          <mxGeometry relative="1" as="geometry">
            <mxPoint x="360" y="549" as="sourcePoint" />
            <mxPoint x="450" y="549" as="targetPoint" />
          </mxGeometry>
        </mxCell>
        <mxCell id="c2tBITpVY1rd2HRfeNSJ-16" style="edgeStyle=orthogonalEdgeStyle;rounded=0;orthogonalLoop=1;jettySize=auto;html=1;entryX=0.5;entryY=0;entryDx=0;entryDy=0;" parent="1" source="c2tBITpVY1rd2HRfeNSJ-11" target="c2tBITpVY1rd2HRfeNSJ-15" edge="1">
          <mxGeometry relative="1" as="geometry" />
        </mxCell>
        <mxCell id="c2tBITpVY1rd2HRfeNSJ-21" value="&lt;span style=&quot;font-size: 14px;&quot;&gt;&lt;b&gt;Yes&lt;/b&gt;&lt;/span&gt;" style="edgeLabel;html=1;align=center;verticalAlign=middle;resizable=0;points=[];" parent="c2tBITpVY1rd2HRfeNSJ-16" vertex="1" connectable="0">
          <mxGeometry x="-0.08" y="1" relative="1" as="geometry">
            <mxPoint x="-33" y="2" as="offset" />
          </mxGeometry>
        </mxCell>
        <mxCell id="c2tBITpVY1rd2HRfeNSJ-40" style="edgeStyle=orthogonalEdgeStyle;rounded=0;orthogonalLoop=1;jettySize=auto;html=1;" parent="1" source="c2tBITpVY1rd2HRfeNSJ-11" edge="1">
          <mxGeometry relative="1" as="geometry">
            <mxPoint x="350" y="650" as="targetPoint" />
            <Array as="points">
              <mxPoint x="631" y="865" />
              <mxPoint x="631" y="1370" />
              <mxPoint x="200" y="1370" />
              <mxPoint x="200" y="650" />
            </Array>
          </mxGeometry>
        </mxCell>
        <mxCell id="c2tBITpVY1rd2HRfeNSJ-46" value="&lt;font style=&quot;font-size: 14px;&quot;&gt;&lt;b&gt;No&lt;/b&gt;&lt;/font&gt;" style="edgeLabel;html=1;align=center;verticalAlign=middle;resizable=0;points=[];" parent="c2tBITpVY1rd2HRfeNSJ-40" vertex="1" connectable="0">
          <mxGeometry x="-0.9094" relative="1" as="geometry">
            <mxPoint x="-3" y="-15" as="offset" />
          </mxGeometry>
        </mxCell>
        <mxCell id="c2tBITpVY1rd2HRfeNSJ-11" value="&lt;h3&gt;&lt;font style=&quot;font-size: 14px;&quot;&gt;j &amp;lt; n&lt;/font&gt;&lt;/h3&gt;" style="rhombus;whiteSpace=wrap;html=1;align=center;fontStyle=1" parent="1" vertex="1">
          <mxGeometry x="292" y="830" width="140" height="70" as="geometry" />
        </mxCell>
        <mxCell id="c2tBITpVY1rd2HRfeNSJ-22" style="edgeStyle=orthogonalEdgeStyle;rounded=0;orthogonalLoop=1;jettySize=auto;html=1;entryX=0.5;entryY=0;entryDx=0;entryDy=0;" parent="1" source="c2tBITpVY1rd2HRfeNSJ-15" target="1b8OOkyoyCvPbWK1I4tC-46" edge="1">
          <mxGeometry relative="1" as="geometry" />
        </mxCell>
        <mxCell id="c2tBITpVY1rd2HRfeNSJ-15" value="&lt;h3&gt;&lt;font style=&quot;font-size: 14px;&quot;&gt;a[i] == a[j]&lt;/font&gt;&lt;/h3&gt;" style="rhombus;whiteSpace=wrap;html=1;align=center;fontStyle=1" parent="1" vertex="1">
          <mxGeometry x="292" y="940" width="140" height="70" as="geometry" />
        </mxCell>
        <mxCell id="c2tBITpVY1rd2HRfeNSJ-27" style="edgeStyle=orthogonalEdgeStyle;rounded=0;orthogonalLoop=1;jettySize=auto;html=1;entryX=0.5;entryY=0;entryDx=0;entryDy=0;" parent="1" source="c2tBITpVY1rd2HRfeNSJ-23" target="c2tBITpVY1rd2HRfeNSJ-26" edge="1">
          <mxGeometry relative="1" as="geometry" />
        </mxCell>
        <mxCell id="c2tBITpVY1rd2HRfeNSJ-34" value="&lt;font style=&quot;font-size: 14px;&quot;&gt;&lt;b&gt;Yes&lt;/b&gt;&lt;/font&gt;" style="edgeLabel;html=1;align=center;verticalAlign=middle;resizable=0;points=[];" parent="c2tBITpVY1rd2HRfeNSJ-27" vertex="1" connectable="0">
          <mxGeometry x="-0.13" y="-2" relative="1" as="geometry">
            <mxPoint x="-20" as="offset" />
          </mxGeometry>
        </mxCell>
        <mxCell id="c2tBITpVY1rd2HRfeNSJ-33" style="edgeStyle=orthogonalEdgeStyle;rounded=0;orthogonalLoop=1;jettySize=auto;html=1;entryX=0;entryY=0.5;entryDx=0;entryDy=0;" parent="1" source="c2tBITpVY1rd2HRfeNSJ-23" target="c2tBITpVY1rd2HRfeNSJ-32" edge="1">
          <mxGeometry relative="1" as="geometry" />
        </mxCell>
        <mxCell id="c2tBITpVY1rd2HRfeNSJ-35" value="&lt;font style=&quot;font-size: 14px;&quot;&gt;&lt;b&gt;No&lt;/b&gt;&lt;/font&gt;" style="edgeLabel;html=1;align=center;verticalAlign=middle;resizable=0;points=[];" parent="c2tBITpVY1rd2HRfeNSJ-33" vertex="1" connectable="0">
          <mxGeometry x="-0.1706" relative="1" as="geometry">
            <mxPoint y="-15" as="offset" />
          </mxGeometry>
        </mxCell>
        <mxCell id="c2tBITpVY1rd2HRfeNSJ-23" value="&lt;h3&gt;&lt;font style=&quot;font-size: 14px;&quot;&gt;k &amp;lt; n - 1&lt;/font&gt;&lt;/h3&gt;" style="rhombus;whiteSpace=wrap;html=1;align=center;fontStyle=1" parent="1" vertex="1">
          <mxGeometry x="292" y="1120" width="140" height="70" as="geometry" />
        </mxCell>
        <mxCell id="c2tBITpVY1rd2HRfeNSJ-29" style="edgeStyle=orthogonalEdgeStyle;rounded=0;orthogonalLoop=1;jettySize=auto;html=1;entryX=0.5;entryY=0;entryDx=0;entryDy=0;" parent="1" source="c2tBITpVY1rd2HRfeNSJ-26" target="c2tBITpVY1rd2HRfeNSJ-28" edge="1">
          <mxGeometry relative="1" as="geometry" />
        </mxCell>
        <mxCell id="c2tBITpVY1rd2HRfeNSJ-26" value="&lt;h3&gt;&lt;span style=&quot;font-size: 14px;&quot;&gt;a[k] = a[k+1]&lt;/span&gt;&lt;/h3&gt;" style="rounded=0;whiteSpace=wrap;html=1;" parent="1" vertex="1">
          <mxGeometry x="302" y="1230" width="120" height="30" as="geometry" />
        </mxCell>
        <mxCell id="c2tBITpVY1rd2HRfeNSJ-30" style="edgeStyle=orthogonalEdgeStyle;rounded=0;orthogonalLoop=1;jettySize=auto;html=1;" parent="1" edge="1">
          <mxGeometry relative="1" as="geometry">
            <mxPoint x="360" y="1100" as="targetPoint" />
            <mxPoint x="302" y="1305" as="sourcePoint" />
            <Array as="points">
              <mxPoint x="302" y="1306" />
              <mxPoint x="280" y="1306" />
              <mxPoint x="280" y="1100" />
            </Array>
          </mxGeometry>
        </mxCell>
        <mxCell id="c2tBITpVY1rd2HRfeNSJ-28" value="&lt;h3&gt;&lt;span style=&quot;font-size: 14px;&quot;&gt;k++&lt;/span&gt;&lt;/h3&gt;" style="rounded=0;whiteSpace=wrap;html=1;" parent="1" vertex="1">
          <mxGeometry x="302" y="1290" width="120" height="30" as="geometry" />
        </mxCell>
        <mxCell id="c2tBITpVY1rd2HRfeNSJ-37" style="edgeStyle=orthogonalEdgeStyle;rounded=0;orthogonalLoop=1;jettySize=auto;html=1;entryX=0.5;entryY=0;entryDx=0;entryDy=0;" parent="1" source="c2tBITpVY1rd2HRfeNSJ-32" target="c2tBITpVY1rd2HRfeNSJ-36" edge="1">
          <mxGeometry relative="1" as="geometry" />
        </mxCell>
        <mxCell id="c2tBITpVY1rd2HRfeNSJ-32" value="&lt;h3&gt;&lt;span style=&quot;font-size: 14px;&quot;&gt;n--&lt;/span&gt;&lt;/h3&gt;" style="rounded=0;whiteSpace=wrap;html=1;" parent="1" vertex="1">
          <mxGeometry x="480" y="1140" width="120" height="30" as="geometry" />
        </mxCell>
        <mxCell id="c2tBITpVY1rd2HRfeNSJ-38" style="edgeStyle=orthogonalEdgeStyle;rounded=0;orthogonalLoop=1;jettySize=auto;html=1;" parent="1" edge="1">
          <mxGeometry relative="1" as="geometry">
            <mxPoint x="360" y="810" as="targetPoint" />
            <mxPoint x="540" y="1220" as="sourcePoint" />
            <Array as="points">
              <mxPoint x="540" y="1340" />
              <mxPoint x="250" y="1340" />
            </Array>
          </mxGeometry>
        </mxCell>
        <mxCell id="c2tBITpVY1rd2HRfeNSJ-36" value="&lt;h3&gt;&lt;span style=&quot;font-size: 14px;&quot;&gt;j--&lt;/span&gt;&lt;/h3&gt;" style="rounded=0;whiteSpace=wrap;html=1;" parent="1" vertex="1">
          <mxGeometry x="480" y="1200" width="120" height="30" as="geometry" />
        </mxCell>
        <mxCell id="c2tBITpVY1rd2HRfeNSJ-60" style="edgeStyle=orthogonalEdgeStyle;rounded=0;orthogonalLoop=1;jettySize=auto;html=1;" parent="1" edge="1">
          <mxGeometry relative="1" as="geometry">
            <mxPoint x="585" y="699.52" as="targetPoint" />
            <mxPoint x="605" y="769.52" as="sourcePoint" />
          </mxGeometry>
        </mxCell>
        <mxCell id="c2tBITpVY1rd2HRfeNSJ-44" value="&lt;div style=&quot;line-height: 100%;&quot;&gt;&lt;h3 style=&quot;line-height: 100%;&quot;&gt;&lt;font style=&quot;font-size: 14px;&quot;&gt;&lt;font style=&quot;font-weight: normal; line-height: 100%;&quot;&gt;Display&lt;br&gt;&lt;/font&gt;&lt;span style=&quot;font-weight: normal; background-color: transparent; color: light-dark(rgb(0, 0, 0), rgb(255, 255, 255));&quot;&gt;&quot;a[i] sau khi xoa&lt;br&gt;cac pt trung nhau&quot;&lt;/span&gt;&lt;/font&gt;&lt;/h3&gt;&lt;/div&gt;" style="shape=parallelogram;perimeter=parallelogramPerimeter;whiteSpace=wrap;html=1;fixedSize=1;" parent="1" vertex="1">
          <mxGeometry x="595" y="750" width="170" height="70" as="geometry" />
        </mxCell>
        <mxCell id="c2tBITpVY1rd2HRfeNSJ-48" value="&lt;h3&gt;&lt;font style=&quot;font-size: 14px;&quot;&gt;&lt;b&gt;Stop&lt;/b&gt;&lt;/font&gt;&lt;/h3&gt;" style="rounded=1;whiteSpace=wrap;html=1;align=center;" parent="1" vertex="1">
          <mxGeometry x="300" y="1400" width="120" height="40" as="geometry" />
        </mxCell>
        <mxCell id="c2tBITpVY1rd2HRfeNSJ-53" style="edgeStyle=orthogonalEdgeStyle;rounded=0;orthogonalLoop=1;jettySize=auto;html=1;entryX=0;entryY=0.5;entryDx=0;entryDy=0;" parent="1" source="c2tBITpVY1rd2HRfeNSJ-49" target="c2tBITpVY1rd2HRfeNSJ-52" edge="1">
          <mxGeometry relative="1" as="geometry" />
        </mxCell>
        <mxCell id="c2tBITpVY1rd2HRfeNSJ-49" value="&lt;h3&gt;&lt;font style=&quot;font-size: 14px;&quot;&gt;i = 0&lt;/font&gt;&lt;/h3&gt;" style="rounded=0;whiteSpace=wrap;html=1;" parent="1" vertex="1">
          <mxGeometry x="480" y="680" width="80" height="30" as="geometry" />
        </mxCell>
        <mxCell id="c2tBITpVY1rd2HRfeNSJ-55" style="edgeStyle=orthogonalEdgeStyle;rounded=0;orthogonalLoop=1;jettySize=auto;html=1;" parent="1" source="c2tBITpVY1rd2HRfeNSJ-52" target="c2tBITpVY1rd2HRfeNSJ-44" edge="1">
          <mxGeometry relative="1" as="geometry" />
        </mxCell>
        <mxCell id="c2tBITpVY1rd2HRfeNSJ-62" value="&lt;font style=&quot;font-size: 14px;&quot;&gt;&lt;b&gt;Yes&lt;/b&gt;&lt;/font&gt;" style="edgeLabel;html=1;align=center;verticalAlign=middle;resizable=0;points=[];" parent="c2tBITpVY1rd2HRfeNSJ-55" vertex="1" connectable="0">
          <mxGeometry x="0.1033" y="-1" relative="1" as="geometry">
            <mxPoint x="-26" as="offset" />
          </mxGeometry>
        </mxCell>
        <mxCell id="c2tBITpVY1rd2HRfeNSJ-61" style="edgeStyle=orthogonalEdgeStyle;rounded=0;orthogonalLoop=1;jettySize=auto;html=1;" parent="1" source="c2tBITpVY1rd2HRfeNSJ-52" target="c2tBITpVY1rd2HRfeNSJ-64" edge="1">
          <mxGeometry relative="1" as="geometry">
            <mxPoint x="500" y="1430" as="targetPoint" />
            <Array as="points">
              <mxPoint x="770" y="695" />
            </Array>
          </mxGeometry>
        </mxCell>
        <mxCell id="c2tBITpVY1rd2HRfeNSJ-63" value="&lt;font style=&quot;font-size: 14px;&quot;&gt;&lt;b&gt;No&lt;/b&gt;&lt;/font&gt;" style="edgeLabel;html=1;align=center;verticalAlign=middle;resizable=0;points=[];" parent="c2tBITpVY1rd2HRfeNSJ-61" vertex="1" connectable="0">
          <mxGeometry x="-0.3426" relative="1" as="geometry">
            <mxPoint x="-20" y="-217" as="offset" />
          </mxGeometry>
        </mxCell>
        <mxCell id="c2tBITpVY1rd2HRfeNSJ-52" value="&lt;h3&gt;&lt;font style=&quot;font-size: 14px;&quot;&gt;i &amp;lt; n&lt;/font&gt;&lt;/h3&gt;" style="rhombus;whiteSpace=wrap;html=1;align=center;fontStyle=1" parent="1" vertex="1">
          <mxGeometry x="630" y="670" width="100" height="50" as="geometry" />
        </mxCell>
        <mxCell id="c2tBITpVY1rd2HRfeNSJ-69" style="edgeStyle=orthogonalEdgeStyle;rounded=0;orthogonalLoop=1;jettySize=auto;html=1;entryX=1;entryY=0.75;entryDx=0;entryDy=0;" parent="1" edge="1">
          <mxGeometry relative="1" as="geometry">
            <mxPoint x="688.5578231292518" y="1421.0476190476188" as="sourcePoint" />
            <mxPoint x="420" y="1421" as="targetPoint" />
            <Array as="points">
              <mxPoint x="470" y="1421" />
              <mxPoint x="470" y="1421" />
            </Array>
          </mxGeometry>
        </mxCell>
        <mxCell id="c2tBITpVY1rd2HRfeNSJ-64" value="&lt;div style=&quot;line-height: 100%;&quot;&gt;&lt;h3 style=&quot;line-height: 100%;&quot;&gt;&lt;font style=&quot;font-size: 14px;&quot;&gt;&lt;font style=&quot;font-weight: normal; line-height: 100%;&quot;&gt;Display&lt;br&gt;&lt;/font&gt;&lt;span style=&quot;font-weight: normal; background-color: transparent; color: light-dark(rgb(0, 0, 0), rgb(255, 255, 255));&quot;&gt;&quot;Mang sau khi xoa&lt;br&gt;cac pt trung nhau&quot;&lt;/span&gt;&lt;/font&gt;&lt;/h3&gt;&lt;/div&gt;" style="shape=parallelogram;perimeter=parallelogramPerimeter;whiteSpace=wrap;html=1;fixedSize=1;" parent="1" vertex="1">
          <mxGeometry x="680" y="1390" width="170" height="70" as="geometry" />
        </mxCell>
      </root>
    </mxGraphModel>
  </diagram>
</mxfile>
